<svg id="Layer_1" data-name="Layer 1" xmlns="http://www.w3.org/2000/svg" viewBox="0 0 102.96 102.96"><defs><style>.cls-1{fill:none;stroke-width:5px;}.cls-1,.cls-2{stroke:#7e7f7f;stroke-miterlimit:10;}.cls-2{fill:#7e7f7f;stroke-width:3px;}</style></defs><title>meal</title><circle class="cls-1" cx="51.48" cy="51.48" r="48.98"/><path class="cls-2" d="M327.22,188.16s-.58,13.19-.5,17.06a13,13,0,0,0,8,12.25c.13,2.09-1,23.55-1.19,25.48s1,3.18,2.37,3.18h6.88c1.26,0,2.37-1.41,2.37-3s-1.29-23.9-1.35-25.93a12.77,12.77,0,0,0,8.27-12.06c-.07-3.88-.47-14.69-.8-17s-2.68-2.47-3,0,.23,18.45-.05,18.79c-1.11,1.34-5.45,1.34-6.61-.14-.31-.39-.77-16.8-1-18.65-.24-2.38-2.58-2.47-3-.09s-.26,18.19-.79,18.83c-1.62,2-5.87,1.31-6.74-.09-.36-.59.4-16.27.08-18.65S327.54,185.82,327.22,188.16Z" transform="translate(-300.4 -163.91)"/><path class="cls-2" d="M374.39,189.08c0,1.23,0,46.33,0,53.34a4.22,4.22,0,0,1-.46,1.93c-.41.8-1.1,1.79-1.81,1.78-.92,0-3.55,0-4.73,0a2.18,2.18,0,0,1-1.19-.36c-.78-.52-2-1.53-1.87-2.7.33-2.71,1.52-20.21,1.57-21.73-15-14.1-1.68-35.11,6.26-35C373.84,186.36,374.4,187.76,374.39,189.08Z" transform="translate(-300.4 -163.91)"/></svg>