<svg id="Layer_1" data-name="Layer 1" xmlns="http://www.w3.org/2000/svg" viewBox="0 0 102.96 102.96"><defs><style>.cls-1{fill:none;stroke:#7e7f7f;stroke-miterlimit:10;stroke-width:5px;}.cls-2{fill:#7e7f7f;}</style></defs><title>wifi</title><circle class="cls-1" cx="51.48" cy="51.48" r="48.98"/><path class="cls-2" d="M333.81,84.77l-4.32-4.12a1.75,1.75,0,0,1,0-2.61,36.33,36.33,0,0,1,47.72,0c1.41,1.2,0,2.71,0,2.71l-4,4a2.09,2.09,0,0,1-2.71,0,26.58,26.58,0,0,0-34.26-.1A2,2,0,0,1,333.81,84.77Z" transform="translate(-301.2 -21.83)"/><path class="cls-2" d="M319.32,70.08l-2-2s-2.15-2.14-.8-3.41C337.13,45.28,368,44,388.79,63.23c3.08,2.68-.27,5.88-.27,5.88l-1.11,1.15s-2,2.81-5.35-.31c-16.87-15.67-41.92-14.26-58.9,1.46C322,72.38,319.32,70.08,319.32,70.08Z" transform="translate(-301.2 -21.83)"/><path class="cls-2" d="M353.41,88a7.59,7.59,0,1,0,0,15.18,7.59,7.59,0,1,0,0-15.18Z" transform="translate(-301.2 -21.83)"/></svg>